<svg width="20" height="25" viewBox="0 0 20 25" fill="none" xmlns="http://www.w3.org/2000/svg">
<path d="M10.3349 0.714355C3.58685 0.715367 0 4.98061 0 9.63139C0 11.7878 1.2216 14.4785 3.1776 15.3315C3.73558 15.5794 3.66173 15.2769 4.14175 13.4655C4.1797 13.3148 4.16021 13.1842 4.03713 13.0436C1.24109 9.853 3.49146 3.29374 9.93589 3.29374C19.2625 3.29374 17.5199 16.0257 11.5585 16.0257C10.0221 16.0257 8.87738 14.8357 9.23945 13.3633C9.67845 11.6097 10.538 9.72448 10.538 8.4606C10.538 5.27508 5.72747 5.74764 5.72747 9.96836C5.72747 11.2727 6.19519 12.1531 6.19519 12.1531C6.19519 12.1531 4.64742 18.3217 4.36022 19.4743C3.87404 21.4253 4.42587 24.5835 4.47408 24.8557C4.50382 25.0055 4.67409 25.053 4.76948 24.9296C4.9223 24.7323 6.79317 22.0992 7.3173 20.1958C7.50808 19.5027 8.29068 16.6895 8.29068 16.6895C8.80661 17.6083 10.2939 18.3774 11.8786 18.3774C16.5926 18.3774 20 14.2893 20 9.2165C19.9836 4.35322 15.7649 0.714355 10.3349 0.714355V0.714355Z" fill="#BDBDBD"/>
</svg>
